<?xml version="1.0" standalone="no"?>
<!DOCTYPE svg PUBLIC "-//W3C//DTD SVG 20010904//EN"
 "http://www.w3.org/TR/2001/REC-SVG-20010904/DTD/svg10.dtd">
<svg version="1.0" xmlns="http://www.w3.org/2000/svg"
 width="256.000000pt" height="256.000000pt" viewBox="0 0 256.000000 256.000000"
 preserveAspectRatio="xMidYMid meet">
<metadata>
Created by potrace 1.14, written by Peter Selinger 2001-2017
</metadata>
<g transform="translate(0.000000,256.000000) scale(0.100000,-0.100000)"
fill="#000000" stroke="none">
<path d="M1180 2457 c-3 -3 -30 -7 -60 -10 -136 -15 -329 -92 -454 -181 -211
-152 -356 -391 -381 -626 -24 -230 31 -442 163 -623 l49 -68 -22 -55 c-37 -92
-17 -163 67 -239 28 -25 54 -45 59 -45 4 0 3 -13 -2 -29 -15 -44 -94 -118
-142 -134 -40 -13 -41 -14 -20 -25 21 -11 92 -20 175 -21 33 -1 40 -6 57 -39
10 -21 27 -63 36 -95 12 -41 21 -57 33 -57 32 1 91 28 166 74 93 58 103 55
134 -43 16 -50 29 -72 44 -76 26 -9 83 16 171 74 l68 44 50 -57 c103 -115 159
-113 204 7 17 46 24 52 55 47 15 -2 89 -58 125 -95 36 -37 77 -65 95 -65 29 0
44 54 42 156 l-2 94 40 1 c22 1 49 3 60 4 11 1 33 3 48 4 16 0 36 7 45 14 16
11 14 17 -30 63 -26 27 -65 80 -85 117 l-37 67 34 51 c39 57 50 101 41 167 -5
45 -4 49 38 94 197 212 270 544 184 833 -41 141 -122 272 -236 383 -187 183
-412 277 -687 288 -67 3 -123 3 -125 1z"/>
</g>
</svg>
